<svg width="508" height="470" viewBox="0 0 508 470" fill="none" xmlns="http://www.w3.org/2000/svg">
<path d="M284.009 166.311H241.139V175.969H284.009V166.311Z" fill="#E29F44"/>
<path d="M35.3506 376.954L33.7852 376.923C34.3908 359.497 36.2482 342.137 39.3429 324.977C46.1128 288.239 57.3683 264.111 72.8048 253.264L73.7033 254.546C37.6501 279.885 35.3691 375.986 35.3506 376.954Z" fill="#4679BC" fill-opacity="0.28"/>
<path d="M54.918 376.578L53.3525 376.548C53.3861 374.809 54.3645 333.906 70.4494 322.6L71.3479 323.883C55.9126 334.732 54.9261 376.161 54.918 376.578Z" fill="#4679BC" fill-opacity="0.28"/>
<path d="M82.6035 254.687C86.9262 254.687 90.4305 251.179 90.4305 246.851C90.4305 242.523 86.9262 239.015 82.6035 239.015C78.2807 239.015 74.7764 242.523 74.7764 246.851C74.7764 251.179 78.2807 254.687 82.6035 254.687Z" fill="#4679BC"/>
<path d="M78.727 322.082C83.0498 322.082 86.5541 318.573 86.5541 314.246C86.5541 309.918 83.0498 306.409 78.727 306.409C74.4042 306.409 70.8999 309.918 70.8999 314.246C70.8999 318.573 74.4042 322.082 78.727 322.082Z" fill="#4679BC"/>
<path d="M51.2699 259.384C52.0543 265.429 51.2394 271.574 48.9067 277.205C44.8325 272.645 42.1621 267.004 41.2172 260.96C40.2722 254.916 41.0929 248.727 43.5806 243.139C47.5202 247.787 50.1717 253.389 51.2699 259.384Z" fill="#4679BC" fill-opacity="0.28"/>
<path d="M76.8558 282.232C71.0468 284.059 64.8606 284.326 58.916 283.008C62.6904 278.197 67.7739 274.581 73.5539 272.596C79.3339 270.611 85.5639 270.342 91.4934 271.82C87.6089 276.514 82.5614 280.105 76.8558 282.232Z" fill="#4679BC" fill-opacity="0.28"/>
<path d="M77.1456 341.917C73.074 343.197 68.738 343.385 64.5713 342.46C67.2168 339.088 70.7798 336.554 74.8311 335.162C78.8825 333.771 83.2492 333.582 87.4053 334.619C84.6833 337.91 81.1453 340.429 77.1456 341.921V341.917Z" fill="#4679BC" fill-opacity="0.28"/>
<path d="M507.217 378.113H0.782703C0.575116 378.113 0.376039 378.03 0.229253 377.883C0.0824663 377.736 0 377.537 0 377.329C0 377.121 0.0824663 376.922 0.229253 376.775C0.376039 376.628 0.575116 376.545 0.782703 376.545H507.217C507.425 376.545 507.624 376.628 507.771 376.775C507.918 376.922 508 377.121 508 377.329C508 377.537 507.918 377.736 507.771 377.883C507.624 378.03 507.425 378.113 507.217 378.113Z" fill="#CBCBCB"/>
<path d="M320.762 414.239L314.357 430.926L247.022 414.137L256.473 389.509L320.762 414.239Z" fill="#E29F44"/>
<path d="M338.551 416.197L317.903 470L317.223 469.739C311.675 467.605 307.202 463.352 304.786 457.916C302.371 452.48 302.211 446.305 304.342 440.751L316.953 407.889L338.551 416.197Z" fill="#57150D"/>
<path d="M218.444 205.31L189.1 208.061L187.645 295.471C188.034 299.755 190.083 303.716 193.354 306.505C196.624 309.295 200.855 310.691 205.141 310.396L223.746 309.113L218.444 205.31Z" fill="#F3F3F3"/>
<path d="M321.893 201.008L301.815 200.75L300.626 304.614C305.063 304.762 309.483 303.993 313.609 302.356C317.736 300.718 321.482 298.247 324.613 295.096C327.743 291.945 330.192 288.182 331.806 284.041C333.419 279.901 334.164 275.472 333.992 271.031L321.893 201.008Z" fill="#F3F3F3"/>
<path d="M205.393 341.509C204.917 344.521 204.227 347.496 203.327 350.41C202.314 353.262 200.75 355.9 199.823 358.782C196.871 367.967 200.964 378.209 207.502 385.298C213.172 391.422 220.491 395.773 228.575 397.826C234.473 399.311 240.607 399.525 246.684 399.732C263.515 400.303 280.779 400.814 296.728 395.399C301.766 393.647 306.633 391.435 311.267 388.791C312.73 388.093 314.019 387.077 315.039 385.817C316.108 383.971 316.583 381.841 316.401 379.716C316.365 372.573 314.919 365.466 315.261 358.33C315.451 354.378 316.188 350.429 315.826 346.488C315.323 342.014 313.451 337.805 310.467 334.436C307.482 331.068 303.531 328.705 299.153 327.671C294.63 326.699 289.937 327.228 285.331 327.671C273.375 328.821 261.367 329.359 249.356 329.281C237.083 329.203 224.887 327.327 212.677 327.131C209.065 327.073 209.138 328.188 207.989 331.687C206.929 334.906 206.062 338.186 205.393 341.509Z" fill="#4679BC"/>
<path d="M157.404 335.704C154.104 334.873 150.704 334.512 147.303 334.629C143.73 334.827 140.24 335.784 137.065 337.437C133.89 339.089 131.103 341.4 128.889 344.214C126.675 347.029 125.084 350.283 124.224 353.761C123.363 357.238 123.252 360.859 123.897 364.383C124.721 368.2 126.068 371.885 127.9 375.333C130.579 380.781 133.791 386.206 138.751 389.694C141.74 391.612 144.957 393.145 148.328 394.258L174.447 404.111C178.29 405.56 182.133 407.009 186.013 408.354C205.508 415.1 225.833 419.145 246.423 420.377C252.695 420.752 259.061 420.855 265.18 419.425C266.672 419.231 268.04 418.491 269.022 417.348C269.519 416.48 269.813 415.509 269.879 414.51L271.487 403.245C271.847 401.675 271.8 400.039 271.35 398.493C270.614 396.6 268.768 395.409 267.008 394.397C249.837 384.523 229.786 379.076 215.333 365.524C211.93 362.334 209.081 357.276 204.949 355.11C200.261 352.652 194.741 351.25 189.897 348.985C179.301 344.035 168.885 338.345 157.404 335.704Z" fill="#4679BC"/>
<path opacity="0.1" d="M183.479 350.889C192.711 353.787 231.689 373.851 238.369 380.856C237.474 381.179 207.09 364.132 206.181 363.857C197.893 361.367 189.56 358.861 181.69 355.216C180.107 354.484 171.405 351.038 171.799 349.038C172.241 346.781 181.84 350.376 183.479 350.889Z" fill="black"/>
<path d="M239.195 175.931L214.338 194.826C214.338 194.826 188.11 195.648 188.997 212.433C189.884 229.218 200.381 308.695 200.381 308.695L202.658 336.041L245.86 348.365C269.203 355.024 293.865 355.554 317.471 349.902L312.337 322.469C312.337 322.469 333.126 197.875 320.602 192.388C308.077 186.902 300.25 188.47 300.25 188.47L284.552 174.756L239.195 175.931Z" fill="#F3F3F3"/>
<path d="M312.773 145.411C312.773 169.939 290.118 166.23 262.175 166.23C234.231 166.23 211.577 169.939 211.577 145.411C211.577 120.882 222.643 77.4019 262.175 77.4019C303.069 77.4019 312.773 120.882 312.773 145.411Z" fill="#57150D"/>
<path d="M288.479 153.723C301.776 140.41 301.776 118.826 288.479 105.513C275.181 92.2 253.622 92.2 240.325 105.513C227.027 118.826 227.027 140.41 240.325 153.723C253.622 167.036 275.181 167.036 288.479 153.723Z" fill="#E29F44"/>
<path d="M222.662 128.751H236.135L242.076 112.095L243.264 128.751H249.7L253.166 119.036L253.86 128.751H301.689C301.689 119.18 297.892 110.002 291.132 103.234C284.372 96.4669 275.205 92.665 265.645 92.665H258.713C249.154 92.665 239.986 96.4669 233.226 103.234C226.467 110.002 222.669 119.18 222.669 128.751H222.662Z" fill="#57150D"/>
<path d="M296.336 179.849H228.237V262.133H296.336V179.849Z" fill="#4679BC"/>
<path d="M231.99 413.455L238.394 430.142L305.729 413.353L296.273 388.726L231.99 413.455Z" fill="#E29F44"/>
<path d="M235.799 407.106L248.411 439.967C250.542 445.522 250.381 451.696 247.966 457.132C245.55 462.569 241.076 466.821 235.528 468.955L234.849 469.216L214.201 415.412L235.799 407.106Z" fill="#57150D"/>
<path d="M366.586 329.315C371.994 327.958 377.601 327.574 383.143 328.183C387.571 328.671 392.131 329.904 395.364 332.972C399.301 336.706 400.563 342.478 400.668 347.907C400.841 358.715 397.261 369.248 390.538 377.707C388.897 379.846 386.946 381.727 384.749 383.288C382.378 384.773 379.851 385.992 377.214 386.924L318.721 410.022C303.333 416.098 287.891 422.193 271.84 426.199C270.967 426.62 269.963 426.678 269.048 426.358C268.133 426.039 267.382 425.368 266.961 424.494L266.924 424.413C261.799 417.084 257.499 409.21 254.104 400.935C253.943 400.739 253.832 400.506 253.779 400.258C253.727 400.009 253.736 399.752 253.804 399.507C253.872 399.262 253.998 399.038 254.171 398.852C254.344 398.666 254.559 398.525 254.798 398.44L296.171 374.642C299.205 373.058 302.033 371.107 304.592 368.833C306.38 367.098 307.844 365.057 308.915 362.805C309.773 361.012 309.853 356.778 310.949 355.455C312.021 354.157 315.69 354.054 317.384 353.544C319.774 352.811 322.114 351.925 324.39 350.892C333.645 346.747 341.885 340.725 350.758 335.872C355.734 333.023 361.051 330.82 366.582 329.314L366.586 329.315Z" fill="#4679BC"/>
<path opacity="0.1" d="M343.131 347.088C336.023 352.433 326.819 357.346 319.775 362.831C317.371 364.703 277.291 387.262 276.724 390.259C283.296 391.367 325.162 362.045 331.152 359.119C337.142 356.193 342.451 352.067 347.709 347.971C349.05 346.928 354.733 343.79 350.884 342.624C348.72 341.968 344.732 346.019 343.131 347.088Z" fill="black"/>
<path d="M470.888 140.835C484.397 140.835 495.348 129.872 495.348 116.347C495.348 102.823 484.397 91.8594 470.888 91.8594C457.38 91.8594 446.429 102.823 446.429 116.347C446.429 129.872 457.38 140.835 470.888 140.835Z" fill="#4679BC" fill-opacity="0.28"/>
<path d="M425.621 145.221C435.097 145.221 442.779 137.53 442.779 128.043C442.779 118.555 435.097 110.865 425.621 110.865C416.145 110.865 408.463 118.555 408.463 128.043C408.463 137.53 416.145 145.221 425.621 145.221Z" fill="#4679BC" fill-opacity="0.28"/>
<path d="M111.317 134.015C118.915 134.015 125.075 127.848 125.075 120.241C125.075 112.634 118.915 106.468 111.317 106.468C103.719 106.468 97.5596 112.634 97.5596 120.241C97.5596 127.848 103.719 134.015 111.317 134.015Z" fill="#4679BC" fill-opacity="0.28"/>
<path d="M133.707 143.291C138.958 143.291 143.215 138.835 143.215 133.338C143.215 127.841 138.958 123.385 133.707 123.385C128.455 123.385 124.198 127.841 124.198 133.338C124.198 138.835 128.455 143.291 133.707 143.291Z" fill="#4679BC" fill-opacity="0.28"/>
<path d="M267.427 21.058C273.235 21.058 277.944 16.344 277.944 10.529C277.944 4.71399 273.235 0 267.427 0C261.619 0 256.91 4.71399 256.91 10.529C256.91 16.344 261.619 21.058 267.427 21.058Z" fill="#4679BC" fill-opacity="0.28"/>
<path opacity="0.17" d="M204.756 232.354L205.696 225.089C205.696 225.089 240.763 227.652 235.283 236.272C229.803 244.892 216.497 245.676 216.497 245.676L204.756 232.354Z" fill="#2F2E41"/>
<path d="M231.219 200.767C233.227 200.989 235.161 201.653 236.883 202.712C238.605 203.77 240.071 205.197 241.176 206.89C242.184 208.435 242.87 210.168 243.191 211.985C243.513 213.802 243.465 215.666 243.05 217.464C242.634 219.261 241.86 220.957 240.774 222.447C239.687 223.938 238.311 225.194 236.728 226.139C236.148 226.482 235.542 226.78 234.916 227.03L213.363 293.035C212.733 294.329 211.855 295.487 210.779 296.441C209.703 297.396 208.449 298.129 207.09 298.599C205.731 299.069 204.292 299.266 202.857 299.179C201.421 299.092 200.017 298.723 198.724 298.093C197.431 297.463 196.275 296.584 195.322 295.506C194.368 294.429 193.636 293.174 193.167 291.813C192.697 290.452 192.501 289.012 192.587 287.575C192.674 286.138 193.043 284.732 193.672 283.438L216.598 218.166C215.973 216.006 215.89 213.726 216.356 211.526C216.821 209.327 217.821 207.276 219.267 205.556C220.713 203.835 222.56 202.498 224.645 201.663C226.729 200.828 228.988 200.52 231.22 200.766L231.219 200.767Z" fill="#E29F44"/>
<path d="M205.077 225.708C205.077 225.708 217.426 246.834 235.282 236.272L217.974 302.568H203.399L188.317 299.748L192.54 272.357L205.077 225.708Z" fill="#F3F3F3"/>
<path d="M293.261 240.147L283.03 226.085C283.03 226.085 287.948 211.499 307.014 216.833C307.014 216.833 319.147 244.023 293.261 240.147Z" fill="#E5E5E5"/>
<path opacity="0.17" d="M293.261 240.147L283.03 226.085C283.03 226.085 287.948 211.499 307.014 216.833C307.014 216.833 319.147 244.023 293.261 240.147Z" fill="#2F2E41"/>
<path d="M295.969 191.015C298.921 192.389 301.282 194.777 302.623 197.747C303.964 200.716 304.195 204.069 303.275 207.195L326.201 272.467C326.83 273.761 327.199 275.167 327.286 276.604C327.372 278.041 327.175 279.481 326.706 280.842C326.237 282.203 325.505 283.458 324.551 284.536C323.598 285.613 322.441 286.492 321.148 287.122C319.856 287.752 318.451 288.121 317.016 288.208C315.581 288.295 314.142 288.098 312.783 287.628C311.424 287.159 310.17 286.425 309.094 285.471C308.018 284.516 307.14 283.358 306.51 282.064L284.957 216.059C284.331 215.809 283.725 215.511 283.145 215.168C281.562 214.223 280.186 212.967 279.099 211.477C278.013 209.986 277.239 208.291 276.823 206.493C276.408 204.695 276.36 202.832 276.681 201.015C277.003 199.198 277.689 197.465 278.696 195.919C279.802 194.227 281.268 192.8 282.99 191.741C284.711 190.682 286.646 190.018 288.654 189.797C291.159 189.512 293.693 189.935 295.97 191.016L295.969 191.015Z" fill="#E29F44"/>
<path d="M283.03 226.087C283.03 226.087 299.911 236.342 307.014 216.836L330.801 279.539L323.738 291.915L322.716 292.001C318.499 292.353 314.26 291.675 310.363 290.025C306.466 288.375 303.027 285.803 300.341 282.529C294.865 275.851 291.136 267.913 289.493 259.431L283.03 226.087Z" fill="#F3F3F3"/>
</svg>
